<svg id="Layer_1" data-name="Layer 1" xmlns="http://www.w3.org/2000/svg" viewBox="0 0 306.86 52.38"><defs><style>.cls-1{fill:#ff6c2f;}</style></defs><path class="cls-1" d="M196.74,260.29H211c15.35,0,25.24,7.64,25.24,24.92s-9.89,25.35-24.6,25.35H196.74Zm13.52,41.12c8.53,0,14.29-4.18,14.29-16.2s-5.76-15.77-14.29-15.77h-2.15v32Z" transform="translate(-196.74 -260.29)"/><path class="cls-1" d="M254.3,260.29h13.6l15.78,50.27h-12l-6.58-25.46c-1.4-5-2.74-11-4.08-16.21h-.31c-1.22,5.31-2.56,11.18-4,16.21l-6.6,25.46H238.51Zm-5.38,29.46h24.19v8.83H248.92Z" transform="translate(-196.74 -260.29)"/><path class="cls-1" d="M295.89,269.82H282.05v-9.53h39v9.53H307.25v40.74H295.89Z" transform="translate(-196.74 -260.29)"/><path class="cls-1" d="M335.2,260.29h13.6l15.79,50.27h-12L346,285.1c-1.39-5-2.74-11-4.08-16.21h-.31c-1.21,5.31-2.55,11.18-3.95,16.21L331,310.56H319.42Zm-5.37,29.46H354v8.83H329.83Z" transform="translate(-196.74 -260.29)"/><path class="cls-1" d="M379.81,284.69l-13.07-24.4H379.4l4.37,9.51c1.14,2.31,2.22,4.9,3.66,8.06h.31c1.16-3.16,2.21-5.75,3.22-8.06l4-9.51h12.12L394,285.23l13.9,25.33H395.24l-5-10.25c-1.26-2.6-2.43-5.19-3.77-8.28h-.31c-1.18,3.09-2.32,5.68-3.45,8.28L378,310.56H365.92Z" transform="translate(-196.74 -260.29)"/><path class="cls-1" d="M421.53,311.09l-10.42-4.54,20-46.09L441.58,265Z" transform="translate(-196.74 -260.29)"/><path class="cls-1" d="M442.44,305.4l6.53-7.79c3.57,3.11,8.21,5.25,12.34,5.25,4.74,0,7.07-1.87,7.07-4.85,0-3.17-2.86-4.18-7.25-6l-6.53-2.78c-5.21-2.12-10.15-6.4-10.15-13.7,0-8.33,7.44-15,17.9-15a23.24,23.24,0,0,1,16.17,6.58l-5.73,7.16c-3.31-2.54-6.46-3.93-10.44-3.93s-6.41,1.63-6.41,4.5c0,3.09,3.29,4.21,7.68,5.95l6.4,2.6c6.14,2.48,10,6.57,10,13.67,0,8.35-7,15.58-18.93,15.58A27.7,27.7,0,0,1,442.44,305.4Z" transform="translate(-196.74 -260.29)"/><path class="cls-1" d="M503.31,261.11v2.77H490v6.49h-2.33v-9.26Z" transform="translate(-196.74 -260.29)"/><path class="cls-1" d="M503.31,276.41v3.25l-15.62,5.09v-2.93l8.31-2.38c1.65-.5,3.44-1,5.15-1.42v-.09c-1.73-.43-3.5-.89-5.15-1.39l-8.31-2.4v-2.83Zm-9.22-2.09v7.36h-2.17v-7.36Z" transform="translate(-196.74 -260.29)"/><path class="cls-1" d="M503.31,286.68v5c0,3.22-1,5.58-3.85,5.58a3.52,3.52,0,0,1-3.38-2.17H496a3.57,3.57,0,0,1-3.71,3c-3.12,0-4.58-2.56-4.58-6v-5.41Zm-13.46,5.12c0,2.29.82,3.57,2.58,3.57s2.36-1.24,2.36-3.57v-2.34h-4.94Zm7-.37c0,2.18.85,3.11,2.21,3.11s2.08-1,2.08-3.05v-2h-4.29Z" transform="translate(-196.74 -260.29)"/><path class="cls-1" d="M489.69,299.64l1.9,1.62a6.12,6.12,0,0,0-1.78,4.07c0,1.76.8,2.72,2,2.72s1.7-1,2.3-2.42l.93-2.14a4.48,4.48,0,0,1,4.14-3.16c2.49,0,4.41,2.2,4.41,5.25a6.91,6.91,0,0,1-2,4.82L499.85,309a5,5,0,0,0,1.34-3.39c0-1.48-.69-2.45-1.83-2.45s-1.69,1.19-2.22,2.49l-.88,2.1c-.77,1.86-1.95,3.16-4.22,3.16-2.53,0-4.64-2.1-4.64-5.61A8,8,0,0,1,489.69,299.64Z" transform="translate(-196.74 -260.29)"/></svg>