<svg id="Layer_1" data-name="Layer 1" xmlns="http://www.w3.org/2000/svg" viewBox="0 0 441.26 75.32"><defs><style>.cls-1{fill:#0047ab;}</style></defs><path class="cls-1" d="M64.46,279H84.89c22.08,0,36.3,11,36.3,35.83S107,351.24,85.81,351.24H64.46ZM83.9,338.08c12.26,0,20.55-6,20.55-23.3s-8.29-22.67-20.55-22.67H80.8v46Z" transform="translate(-64.46 -278.95)"/><path class="cls-1" d="M147.23,279h19.55l22.7,72.29H172.19l-9.46-36.61c-2-7.23-3.94-15.78-5.87-23.32h-.44c-1.75,7.64-3.68,16.09-5.69,23.32l-9.5,36.61h-16.7Zm-7.74,42.37h34.78V334H139.49Z" transform="translate(-64.46 -278.95)"/><path class="cls-1" d="M207,292.66H187.14V279h56.13v13.71h-19.9v58.58H207Z" transform="translate(-64.46 -278.95)"/><path class="cls-1" d="M263.57,279h19.55l22.7,72.29H288.53l-9.46-36.61c-2-7.23-3.94-15.78-5.87-23.32h-.44c-1.75,7.64-3.68,16.09-5.69,23.32l-9.5,36.61h-16.7Zm-7.74,42.37h34.78V334H255.83Z" transform="translate(-64.46 -278.95)"/><path class="cls-1" d="M327.72,314,308.92,279h18.2l6.29,13.67c1.63,3.33,3.18,7.05,5.26,11.59h.44c1.67-4.54,3.18-8.26,4.63-11.59L349.48,279h17.44l-18.8,35.86,20,36.43H349.9l-7.14-14.74c-1.81-3.74-3.48-7.47-5.41-11.9h-.44c-1.71,4.43-3.34,8.16-5,11.9l-6.77,14.74H307.73Z" transform="translate(-64.46 -278.95)"/><path class="cls-1" d="M387.71,352l-15-6.52,28.82-66.29,15,6.52Z" transform="translate(-64.46 -278.95)"/><path class="cls-1" d="M417.77,343.82l9.39-11.21c5.14,4.48,11.8,7.55,17.75,7.55,6.82,0,10.16-2.68,10.16-7,0-4.55-4.11-6-10.42-8.61l-9.4-4c-7.49-3.05-14.58-9.2-14.58-19.71,0-12,10.7-21.54,25.74-21.54a33.4,33.4,0,0,1,23.25,9.47l-8.24,10.3c-4.77-3.65-9.29-5.66-15-5.66s-9.22,2.35-9.22,6.48c0,4.44,4.73,6.05,11,8.56l9.21,3.73c8.83,3.57,14.34,9.44,14.34,19.66,0,12-10,22.4-27.24,22.4A39.8,39.8,0,0,1,417.77,343.82Z" transform="translate(-64.46 -278.95)"/><path class="cls-1" d="M505.31,280.13v4H486.19v9.33h-3.35V280.13Z" transform="translate(-64.46 -278.95)"/><path class="cls-1" d="M505.31,302.13v4.67l-22.47,7.33v-4.22l12-3.42c2.38-.72,4.95-1.38,7.41-2v-.14c-2.49-.61-5-1.27-7.41-2l-12-3.45V294.8Zm-13.26-3v10.59h-3.13V299.13Z" transform="translate(-64.46 -278.95)"/><path class="cls-1" d="M505.31,316.91v7.19c0,4.61-1.42,8-5.54,8A5,5,0,0,1,494.9,329h-.13a5.16,5.16,0,0,1-5.34,4.32c-4.49,0-6.59-3.69-6.59-8.64v-7.76Zm-19.37,7.35c0,3.3,1.18,5.14,3.71,5.14,2.37,0,3.4-1.79,3.4-5.14v-3.37h-7.11Zm10.09-.52c0,3.13,1.22,4.47,3.18,4.47,2.17,0,3-1.47,3-4.39v-2.93H496Z" transform="translate(-64.46 -278.95)"/><path class="cls-1" d="M485.72,335.54l2.73,2.32a8.85,8.85,0,0,0-2.56,5.86c0,2.53,1.15,3.92,2.9,3.92s2.44-1.45,3.3-3.49l1.34-3.08c.92-2.21,2.67-4.54,5.95-4.54,3.59,0,6.34,3.16,6.34,7.55a9.82,9.82,0,0,1-2.86,6.92l-2.53-2a7.28,7.28,0,0,0,1.93-4.88c0-2.13-1-3.52-2.64-3.52s-2.42,1.71-3.18,3.57l-1.27,3c-1.12,2.68-2.81,4.55-6.07,4.55-3.64,0-6.68-3-6.68-8.07A11.57,11.57,0,0,1,485.72,335.54Z" transform="translate(-64.46 -278.95)"/></svg>