<svg id="Layer_1" data-name="Layer 1" xmlns="http://www.w3.org/2000/svg" viewBox="0 0 437.42 75.75"><defs><style>.cls-1{fill:#ff6c2f;}</style></defs><path class="cls-1" d="M73,390.92H93.42c22.08,0,36.3,11,36.3,35.83S115.5,463.2,94.34,463.2H73ZM92.43,450c12.26,0,20.55-6,20.55-23.29s-8.29-22.67-20.55-22.67h-3.1v46Z" transform="translate(-72.99 -390.49)"/><path class="cls-1" d="M155.76,390.92h19.55L198,463.2H180.72l-9.46-36.61c-2-7.22-3.94-15.77-5.87-23.31H165c-1.75,7.63-3.68,16.09-5.69,23.31l-9.5,36.61h-16.7ZM148,433.28H182.8V446H148Z" transform="translate(-72.99 -390.49)"/><path class="cls-1" d="M215.56,404.62H195.67v-13.7H251.8v13.7H231.9V463.2H215.56Z" transform="translate(-72.99 -390.49)"/><path class="cls-1" d="M272.1,390.92h19.55l22.7,72.28H297.06l-9.46-36.61c-2-7.22-3.94-15.77-5.87-23.31h-.44c-1.75,7.63-3.68,16.09-5.69,23.31l-9.5,36.61H249.4Zm-7.74,42.36h34.78V446H264.36Z" transform="translate(-72.99 -390.49)"/><path class="cls-1" d="M336.25,426l-18.8-35.08h18.21l6.28,13.67c1.63,3.33,3.18,7,5.26,11.58h.44c1.67-4.54,3.19-8.25,4.63-11.58L358,390.92h17.44l-18.8,35.85,20,36.43H358.43l-7.14-14.74c-1.81-3.73-3.48-7.46-5.41-11.9h-.44c-1.71,4.44-3.34,8.17-5,11.9L333.7,463.2H316.26Z" transform="translate(-72.99 -390.49)"/><path class="cls-1" d="M396.24,464l-15-6.51,28.82-66.29,15,6.52Z" transform="translate(-72.99 -390.49)"/><path class="cls-1" d="M426.3,455.79l9.39-11.21c5.14,4.47,11.8,7.55,17.75,7.55,6.82,0,10.16-2.69,10.16-7,0-4.55-4.11-6-10.42-8.6l-9.39-4c-7.5-3.05-14.59-9.2-14.59-19.7,0-12,10.7-21.54,25.74-21.54a33.44,33.44,0,0,1,23.26,9.47L470,411.07c-4.77-3.66-9.29-5.66-15-5.66s-9.22,2.34-9.22,6.48c0,4.43,4.73,6,11,8.55l9.21,3.73c8.83,3.57,14.34,9.45,14.34,19.67,0,12-10,22.4-27.23,22.4A39.8,39.8,0,0,1,426.3,455.79Z" transform="translate(-72.99 -390.49)"/><path class="cls-1" d="M487.52,462.06v-4h19.12v-9.33H510v13.32Z" transform="translate(-72.99 -390.49)"/><path class="cls-1" d="M487.52,440.06v-4.67L510,428.06v4.22L498,435.71c-2.38.71-5,1.37-7.41,2v.14c2.49.62,5,1.28,7.41,2L510,443.32v4.07Zm13.26,3V432.48h3.13v10.58Z" transform="translate(-72.99 -390.49)"/><path class="cls-1" d="M487.52,425.29V418.1c0-4.62,1.42-8,5.54-8a5.06,5.06,0,0,1,4.87,3.12h.13a5.16,5.16,0,0,1,5.34-4.31c4.49,0,6.59,3.68,6.59,8.63v7.77Zm9.28-6.84c0-3.13-1.22-4.46-3.18-4.46-2.17,0-3,1.47-3,4.38v2.93h6.17Zm10.09-.52c0-3.3-1.18-5.14-3.71-5.14-2.37,0-3.4,1.79-3.4,5.14v3.37h7.11Z" transform="translate(-72.99 -390.49)"/><path class="cls-1" d="M507.11,406.65l-2.73-2.32a8.85,8.85,0,0,0,2.56-5.86c0-2.53-1.15-3.91-2.9-3.91s-2.44,1.45-3.3,3.49l-1.34,3.07c-.92,2.21-2.67,4.54-5.95,4.54-3.59,0-6.34-3.16-6.34-7.54a9.84,9.84,0,0,1,2.86-6.93l2.53,2.05a7.26,7.26,0,0,0-1.93,4.88c0,2.13,1,3.51,2.64,3.51s2.42-1.71,3.18-3.57l1.28-3c1.11-2.67,2.8-4.54,6.06-4.54,3.64,0,6.68,3,6.68,8.07A11.57,11.57,0,0,1,507.11,406.65Z" transform="translate(-72.99 -390.49)"/></svg>